<?xml version="1.0" encoding="UTF-8" standalone="no"?>
<!DOCTYPE svg PUBLIC "-//W3C//DTD SVG 1.1//EN" "http://www.w3.org/Graphics/SVG/1.1/DTD/svg11.dtd">
<svg width="100%" height="100%" viewBox="0 0 4370 1473" version="1.1" xmlns="http://www.w3.org/2000/svg" xmlns:xlink="http://www.w3.org/1999/xlink" xml:space="preserve" xmlns:serif="http://www.serif.com/" style="fill-rule:evenodd;clip-rule:evenodd;stroke-linejoin:round;stroke-miterlimit:2;">
    <rect id="Artboard1" x="0" y="0" width="4369.583" height="1472.5" style="fill:none;"/>
    <clipPath id="_clip1">
        <rect id="Artboard11" serif:id="Artboard1" x="0" y="0" width="4369.583" height="1472.5"/>
    </clipPath>
    <g clip-path="url(#_clip1)">
        <g transform="matrix(4.166745,0,0,4.166745,-1815.282607,-1513.720246)">
            <g transform="matrix(1,0,0,1,545.1106,464.4491)">
                <path d="M0,151.102L25.482,151.102C30.268,151.102 34.148,147.222 34.148,142.435L34.148,0L8.667,0C3.88,0 0,3.88 0,8.667L0,151.102Z" style="fill:rgb(19,24,44);fill-rule:nonzero;"/>
            </g>
            <g transform="matrix(1,0,0,1,667.0077,539.9984)">
                <path d="M0,0.004C19.662,-6.966 33.787,-25.741 33.787,-47.761C33.787,-75.7 11.058,-98.429 -16.881,-98.429L-143.053,-98.429L-143.053,-95.527C-143.053,-84.511 -134.091,-75.549 -123.074,-75.549L-38.219,-75.549C-20.544,-75.549 -6.163,-61.169 -6.163,-43.492C-6.163,-25.816 -20.544,-11.435 -38.219,-11.435L-75.931,-11.435L-75.931,11.439L-38.219,11.439C-20.544,11.439 -6.163,25.82 -6.163,43.496C-6.163,61.172 -20.544,75.553 -38.219,75.553L-123.074,75.553C-134.091,75.553 -143.053,84.515 -143.053,95.531L-143.053,98.433L-16.878,98.433C11.059,98.433 33.787,75.704 33.787,47.768C33.787,25.747 19.662,6.973 0,0.004" style="fill:rgb(19,24,44);fill-rule:nonzero;"/>
            </g>
            <g transform="matrix(1,0,0,1,612.3746,379.112)">
                <path d="M0,321.776C-88.856,321.776 -160.888,249.744 -160.888,160.888C-160.888,72.032 -88.856,0 0,0C88.856,0 160.888,72.032 160.888,160.888C160.888,249.744 88.856,321.776 0,321.776M-0.008,-15.826C-97.435,-15.826 -176.715,63.453 -176.715,160.896C-176.715,258.34 -97.435,337.602 -0.008,337.602C97.435,337.602 176.715,258.34 176.715,160.896C176.715,63.453 97.435,-15.826 -0.008,-15.826" style="fill:rgb(242,174,46);fill-rule:nonzero;"/>
            </g>
            <g>
                <g transform="matrix(1,0,0,1,903.0148,461.2741)">
                    <path d="M0,18.905L-22.134,18.905L-22.134,41.654L0.154,41.654C4.662,41.654 8.197,40.631 10.76,38.579C13.32,36.531 14.603,33.869 14.603,30.587C14.603,27.105 13.32,24.286 10.76,22.133C8.197,19.981 4.611,18.905 0,18.905M-4.303,-22.749L-22.134,-22.749L-22.134,-1.23L-4.303,-1.23C-0.307,-1.23 2.741,-2.229 4.842,-4.229C6.942,-6.227 7.993,-8.863 7.993,-12.145C7.993,-15.319 6.942,-17.882 4.842,-19.829C2.741,-21.775 -0.307,-22.749 -4.303,-22.749M-45.959,62.098L-45.959,-43.193L-2.613,-43.193C8.556,-43.193 17.009,-40.504 22.749,-35.124C28.487,-29.743 31.357,-22.904 31.357,-14.604C31.357,-4.868 26.95,2.253 18.138,6.762C31.665,10.862 38.428,19.265 38.428,31.97C38.428,40.989 35.251,48.263 28.898,53.797C22.543,59.331 13.373,62.098 1.383,62.098L-45.959,62.098Z" style="fill:rgb(18,21,41);fill-rule:nonzero;"/>
                </g>
                <g transform="matrix(-1,0,0,1,1926.079,-138.547)">
                    <rect x="951.127" y="556.628" width="23.825" height="105.291" style="fill:rgb(18,21,41);"/>
                </g>
                <g transform="matrix(1,0,0,1,1038.7394,418.0809)">
                    <path d="M0,105.291L-23.825,105.291L-23.825,21.827L-55.182,21.827L-55.182,0L31.357,0L31.357,21.827L0,21.827L0,105.291Z" style="fill:rgb(18,21,41);fill-rule:nonzero;"/>
                </g>
                <g transform="matrix(1,0,0,1,1130.1959,418.0809)">
                    <path d="M0,105.291L-28.437,42.424L-28.437,105.291L-51.339,105.291L-51.339,0L-22.749,0L8.147,69.63L39.042,0L67.632,0L67.632,105.291L44.268,105.291L44.268,42.116L15.678,105.291L0,105.291Z" style="fill:rgb(18,21,41);fill-rule:nonzero;"/>
                </g>
                <g transform="matrix(1,0,0,1,1210.738,418.0809)">
                    <path d="M0,105.291L0,0L77.006,0L77.006,21.519L23.823,21.519L23.823,41.347L73.011,41.347L73.011,62.251L23.823,62.251L23.823,83.772L77.163,83.772L77.163,105.291L0,105.291Z" style="fill:rgb(18,21,41);fill-rule:nonzero;"/>
                </g>
                <g transform="matrix(1,0,0,1,1339.8536,501.5451)">
                    <path d="M0,-61.637L-17.524,-61.637L-17.524,-33.509L-0.769,-33.509C4.354,-33.509 8.402,-34.816 11.374,-37.428C14.344,-40.041 15.832,-43.397 15.832,-47.496C15.832,-51.697 14.473,-55.104 11.758,-57.718C9.042,-60.332 5.123,-61.637 0,-61.637M-17.524,-13.988L-17.524,21.827L-41.348,21.827L-41.348,-83.464L3.534,-83.464C14.602,-83.464 23.414,-80.236 29.973,-73.782C36.53,-67.326 39.81,-58.872 39.81,-48.419C39.81,-40.118 37.222,-32.867 32.049,-26.668C26.872,-20.468 19.878,-16.497 11.067,-14.757L44.576,21.827L13.526,21.827L-17.524,-13.988Z" style="fill:rgb(18,21,41);fill-rule:nonzero;"/>
                </g>
                <g transform="matrix(1,0,0,1,1458.3628,418.0809)">
                    <path d="M0,105.291L-42.424,38.581L-42.424,105.291L-65.326,105.291L-65.326,0L-39.349,0L3.075,66.863L3.075,0L25.977,0L25.977,105.291L0,105.291Z" style="fill:rgb(18,21,41);fill-rule:nonzero;"/>
                </g>
            </g>
            <g transform="matrix(2.945899,0,0,2.945899,-9697.509512,-8582.994645)">
                <g transform="matrix(50,0,0,50,3581.041465,3139.892682)">
                    <path d="M0.047,-0L0.047,-0.728L0.333,-0.728C0.389,-0.728 0.436,-0.717 0.474,-0.696C0.513,-0.675 0.543,-0.646 0.564,-0.609C0.584,-0.572 0.595,-0.529 0.595,-0.481C0.595,-0.432 0.584,-0.39 0.563,-0.353C0.542,-0.316 0.512,-0.287 0.473,-0.267C0.433,-0.246 0.386,-0.236 0.33,-0.236L0.147,-0.236L0.147,-0.359L0.304,-0.359C0.334,-0.359 0.359,-0.364 0.378,-0.374C0.398,-0.385 0.412,-0.399 0.422,-0.417C0.431,-0.436 0.436,-0.457 0.436,-0.481C0.436,-0.505 0.431,-0.526 0.422,-0.544C0.412,-0.562 0.398,-0.576 0.378,-0.586C0.359,-0.596 0.334,-0.601 0.304,-0.601L0.2,-0.601L0.2,-0L0.047,-0Z" style="fill:rgb(232,177,75);fill-rule:nonzero;"/>
                </g>
                <g transform="matrix(50,0,0,50,3611.783597,3139.892682)">
                    <path d="M0.375,0.01C0.31,0.01 0.252,-0.005 0.201,-0.034C0.149,-0.063 0.108,-0.106 0.079,-0.162C0.049,-0.217 0.034,-0.284 0.034,-0.363C0.034,-0.443 0.049,-0.51 0.079,-0.566C0.108,-0.622 0.149,-0.664 0.201,-0.694C0.252,-0.723 0.31,-0.737 0.375,-0.737C0.439,-0.737 0.497,-0.723 0.548,-0.694C0.6,-0.664 0.64,-0.622 0.67,-0.566C0.7,-0.51 0.715,-0.443 0.715,-0.363C0.715,-0.284 0.7,-0.217 0.67,-0.161C0.64,-0.106 0.6,-0.063 0.548,-0.034C0.497,-0.005 0.439,0.01 0.375,0.01ZM0.375,-0.126C0.412,-0.126 0.444,-0.135 0.472,-0.153C0.5,-0.172 0.521,-0.198 0.536,-0.234C0.552,-0.269 0.559,-0.312 0.559,-0.363C0.559,-0.415 0.552,-0.458 0.536,-0.494C0.521,-0.529 0.5,-0.556 0.472,-0.574C0.444,-0.592 0.412,-0.601 0.375,-0.601C0.338,-0.601 0.305,-0.592 0.277,-0.574C0.25,-0.556 0.228,-0.529 0.213,-0.494C0.197,-0.458 0.19,-0.415 0.19,-0.363C0.19,-0.312 0.197,-0.269 0.213,-0.234C0.228,-0.198 0.25,-0.172 0.277,-0.153C0.305,-0.135 0.338,-0.126 0.375,-0.126Z" style="fill:rgb(232,177,75);fill-rule:nonzero;"/>
                </g>
                <g transform="matrix(50,0,0,50,3649.224934,3139.892682)">
                    <path d="M0.375,0.01C0.31,0.01 0.252,-0.005 0.201,-0.034C0.149,-0.063 0.108,-0.106 0.079,-0.162C0.049,-0.217 0.034,-0.284 0.034,-0.363C0.034,-0.443 0.049,-0.51 0.079,-0.566C0.108,-0.622 0.149,-0.664 0.201,-0.694C0.252,-0.723 0.31,-0.737 0.375,-0.737C0.439,-0.737 0.497,-0.723 0.548,-0.694C0.6,-0.664 0.64,-0.622 0.67,-0.566C0.7,-0.51 0.715,-0.443 0.715,-0.363C0.715,-0.284 0.7,-0.217 0.67,-0.161C0.64,-0.106 0.6,-0.063 0.548,-0.034C0.497,-0.005 0.439,0.01 0.375,0.01ZM0.375,-0.126C0.412,-0.126 0.444,-0.135 0.472,-0.153C0.5,-0.172 0.521,-0.198 0.536,-0.234C0.552,-0.269 0.559,-0.312 0.559,-0.363C0.559,-0.415 0.552,-0.458 0.536,-0.494C0.521,-0.529 0.5,-0.556 0.472,-0.574C0.444,-0.592 0.412,-0.601 0.375,-0.601C0.338,-0.601 0.305,-0.592 0.277,-0.574C0.25,-0.556 0.228,-0.529 0.213,-0.494C0.197,-0.458 0.19,-0.415 0.19,-0.363C0.19,-0.312 0.197,-0.269 0.213,-0.234C0.228,-0.198 0.25,-0.172 0.277,-0.153C0.305,-0.135 0.338,-0.126 0.375,-0.126Z" style="fill:rgb(232,177,75);fill-rule:nonzero;"/>
                </g>
                <g transform="matrix(50,0,0,50,3686.666272,3139.892682)">
                    <path d="M0.047,-0L0.047,-0.728L0.2,-0.728L0.2,-0.127L0.512,-0.127L0.512,-0L0.047,-0Z" style="fill:rgb(232,177,75);fill-rule:nonzero;"/>
                </g>
                <g transform="matrix(50,0,0,50,3713.414279,3139.892682)">
                </g>
            </g>
        </g>
    </g>
</svg>
